<?xml version="1.0" standalone="no"?>
<!DOCTYPE svg PUBLIC "-//W3C//DTD SVG 20010904//EN"
 "http://www.w3.org/TR/2001/REC-SVG-20010904/DTD/svg10.dtd">
<svg version="1.0" xmlns="http://www.w3.org/2000/svg"
 width="700.000000pt" height="700.000000pt" viewBox="0 0 700.000000 700.000000"
 preserveAspectRatio="xMidYMid meet">
<metadata>
Created by potrace 1.14, written by Peter Selinger 2001-2017
</metadata>
<g transform="translate(0.000000,700.000000) scale(0.100000,-0.100000)"
fill="#000000" stroke="none">
<path d="M1032 5816 c-204 -50 -375 -219 -427 -421 -13 -52 -15 -286 -15
-1895 0 -1609 2 -1843 15 -1895 41 -162 156 -301 305 -373 47 -22 112 -45 144
-51 41 -8 797 -11 2450 -11 2648 0 2462 -4 2599 67 95 50 201 155 244 243 67
138 63 -5 63 2020 0 1623 -2 1843 -15 1895 -54 207 -229 377 -432 420 -96 20
-4848 21 -4931 1z m1383 -1776 l540 -540 -543 -542 -542 -543 -207 208 -208
207 335 335 335 335 -335 335 -335 335 205 205 c113 113 207 205 210 205 3 0
248 -243 545 -540z m3125 -1415 l0 -295 -1020 0 -1020 0 0 295 0 295 1020 0
1020 0 0 -295z"/>
</g>
</svg>
